<svg width="193" height="246" viewBox="0 0 193 246" fill="none" xmlns="http://www.w3.org/2000/svg">
<path d="M82.5753 60.064C94.7024 17.1424 122.465 4.80886 134.889 4.01699C168.266 2.83101 181.957 37.4786 184.71 55.2981C184.748 55.5406 184.764 55.7769 184.764 56.0222V130.347C184.764 133.109 182.526 135.347 179.764 135.347H87.3896C84.6282 135.347 82.3896 133.109 82.3896 130.347V61.4069C82.3896 60.9562 82.4527 60.4977 82.5753 60.064Z" fill="#251E20" stroke="#251E20" stroke-width="2" stroke-linecap="round"/>
<path d="M177.027 43.9951C177.027 65.5509 164.226 104.013 135.787 104.013C107.349 104.013 94.5479 65.5509 94.5479 43.9951C94.5479 22.4393 113.011 4.96484 135.787 4.96484C158.563 4.96484 177.027 22.4393 177.027 43.9951Z" fill="#F3E9E9"/>
<path d="M190.459 61.9243C189.055 69.3259 182.637 74.3248 176.123 73.0895C169.61 71.8542 173.025 67.9519 174.429 60.5503C175.833 53.1486 174.693 45.0504 181.207 46.2857C187.72 47.5209 191.863 54.5226 190.459 61.9243Z" fill="#F3E9E9"/>
<path d="M82.7066 63.9658C84.5855 71.2613 91.0162 75.9116 97.0699 74.3524C103.124 72.7933 99.6087 69.0824 97.7298 61.7869C95.8508 54.4913 96.3193 46.3739 90.2656 47.933C84.2119 49.4922 80.8276 56.6703 82.7066 63.9658Z" fill="#F3E9E9"/>
<path d="M172.352 49.1582C172.352 58.1214 165.565 65.0423 156.302 65.0423C147.039 65.0423 141.694 58.9847 141.694 50.0215C141.694 41.0583 138.809 30.6845 156.302 32.5836C165.565 32.5836 172.352 40.1951 172.352 49.1582Z" fill="url(#paint0_linear_1934_278)"/>
<path d="M101.43 49.7923C101.43 59.0937 107.81 66.2757 116.517 66.2757C125.224 66.2757 130.248 59.9895 130.248 50.6881C130.248 41.3867 132.96 30.6214 116.517 32.5922C107.81 32.5922 101.43 40.4908 101.43 49.7923Z" fill="url(#paint1_linear_1934_278)"/>
<path d="M172.503 50.7118C172.503 59.8983 165.36 67.3454 156.548 67.3454C147.736 67.3454 140.776 59.8984 140.776 50.7119C140.776 41.5255 148.104 43.5303 156.168 44.6334C165.181 46.2882 173.719 47.1156 172.503 50.7118Z" fill="#FBF4F4"/>
<ellipse cx="153.117" cy="52.9723" rx="10.1258" ry="9.02114" fill="#C0D4F2"/>
<ellipse cx="153.117" cy="52.9723" rx="10.1258" ry="9.02114" fill="#C0D4F2"/>
<ellipse cx="153.117" cy="52.9723" rx="10.1258" ry="9.02114" fill="#5F6D8C"/>
<path d="M142.107 44.6258C150.098 46.1603 168.047 49.0084 175.917 48.1245C164.989 44.5063 142.928 38.741 142.107 44.6258Z" fill="#414141" stroke="#414141"/>
<path d="M100.156 50.6445C100.156 59.8309 107.216 67.278 115.925 67.278C124.635 67.278 131.514 59.831 131.514 50.6446C131.514 41.4581 124.271 43.463 116.301 44.566C107.393 46.2208 98.9541 47.0482 100.156 50.6445Z" fill="#FBF4F4"/>
<ellipse cx="10.0001" cy="9.04769" rx="10.0001" ry="9.04769" transform="matrix(-1 0 0 1 126.706 43.5811)" fill="#C0D4F2"/>
<ellipse cx="10.0001" cy="9.04769" rx="10.0001" ry="9.04769" transform="matrix(-1 0 0 1 126.706 43.5811)" fill="#C0D4F2"/>
<ellipse cx="10.0001" cy="9.04769" rx="10.0001" ry="9.04769" transform="matrix(-1 0 0 1 126.706 43.5811)" fill="#5F6D8C"/>
<path d="M129.673 44.6258C121.795 46.1603 104.099 49.0084 96.3393 48.1245C107.113 44.5063 128.864 38.741 129.673 44.6258Z" fill="#414141" stroke="#414141"/>
<path d="M144.774 31.1331C143.301 30.2494 144.16 28.9238 144.774 28.3715C155.379 26.6041 162.448 30.2125 164.658 32.2377C161.712 30.7649 150.175 30.8876 144.774 31.1331Z" fill="#2E2729" stroke="#2E2729"/>
<path d="M127.284 31.0546C128.757 30.1713 127.898 28.8462 127.284 28.2942C116.68 26.5275 109.61 30.1345 107.401 32.1588C110.346 30.6866 121.884 30.8092 127.284 31.0546Z" fill="#2E2729" stroke="#2E2729"/>
<path d="M124.764 84.0059C126.052 84.865 130.029 86.0678 135.626 84.0059C138.449 85.4173 144.794 87.3934 147.593 84.0059" stroke="#A99595" stroke-width="4" stroke-linecap="round"/>
<path d="M132.107 71.9766C133.298 72.8101 136.365 73.9772 139.103 71.9766" stroke="#A99595" stroke-width="3" stroke-linecap="round"/>
<path d="M178.227 59.7423C178.227 71.3307 170.013 76.7008 158.137 76.7008C146.26 76.7008 139.179 71.3307 139.179 59.7423C139.179 48.154 146.26 51.4068 158.137 51.4068C170.013 51.4068 178.227 48.154 178.227 59.7423Z" fill="#F1F1F1" fill-opacity="0.5"/>
<path d="M144.396 52.21C145.885 51.9193 147.766 51.9536 150.111 52.0781C152.418 52.2006 155.133 52.4072 158.137 52.4072C161.14 52.4072 163.925 52.2006 166.337 52.0781C168.785 51.9539 170.818 51.9181 172.459 52.2129C174.07 52.5022 175.192 53.0901 175.946 54.1357C176.725 55.2155 177.227 56.9394 177.227 59.7422C177.227 65.2764 175.279 69.2077 172.016 71.7822C168.715 74.3857 163.943 75.7012 158.137 75.7012C152.33 75.7012 147.861 74.3853 144.854 71.8076C141.876 69.2534 140.179 65.3248 140.179 59.7422C140.179 56.918 140.616 55.1774 141.312 54.0908C141.974 53.0588 142.953 52.4916 144.396 52.21Z" stroke="#201F22" stroke-opacity="0.8" stroke-width="2"/>
<path d="M93.0077 59.9103C93.0077 71.4986 101.221 76.8688 113.098 76.8688C124.974 76.8688 132.056 71.4986 132.056 59.9103C132.056 48.322 124.974 51.5748 113.098 51.5748C101.221 51.5748 93.0077 48.322 93.0077 59.9103Z" fill="#F1F1F1" fill-opacity="0.5"/>
<path d="M126.839 52.3779C125.349 52.0872 123.469 52.1216 121.123 52.2461C118.816 52.3685 116.102 52.5752 113.098 52.5752C110.095 52.5752 107.309 52.3685 104.897 52.2461C102.45 52.1218 100.417 52.0861 98.7754 52.3809C97.1648 52.6701 96.0426 53.258 95.2881 54.3037C94.5092 55.3835 94.0078 57.1074 94.0078 59.9102C94.0078 65.4444 95.9553 69.3756 99.2188 71.9502C102.519 74.5537 107.292 75.8691 113.098 75.8691C118.905 75.8691 123.374 74.5533 126.38 71.9756C129.358 69.4213 131.056 65.4928 131.056 59.9102C131.056 57.0859 130.619 55.3453 129.922 54.2588C129.26 53.2268 128.282 52.6596 126.839 52.3779Z" stroke="#201F22" stroke-opacity="0.8" stroke-width="2"/>
<path d="M131.579 64.2491C133.087 63.2967 136.341 62.3444 139.198 64.2491" stroke="#201F22" stroke-opacity="0.8" stroke-width="2" stroke-linecap="round"/>
<path d="M177.706 207.979C182.053 231.175 150.735 245.376 131.724 245.376C106.329 245.376 78.1723 245.376 85.7425 207.979C85.7425 187.325 116.869 179.035 131.724 170.582C150.117 179.803 177.706 187.325 177.706 207.979Z" fill="#030305"/>
<path d="M94.3432 48.2705C97.2418 29.3696 128.741 16.7021 146.708 10.6694C148.666 10.0122 150.822 10.0228 152.555 11.1461C161.719 17.0877 171.627 34.1017 176.347 44.9066C176.836 46.0251 177.057 47.2321 177.037 48.4526L176.176 103.221C176.138 105.626 178.078 107.596 180.483 107.596C182.842 107.596 184.762 105.699 184.79 103.34L185.461 47.1192C182.584 20.6253 160.202 5.29897 149.732 2.3605C109.411 -6.02517 88.1868 26.3537 82.479 44.7251C82.2231 45.5489 82.1173 46.3991 82.1274 47.2616L82.7797 102.966C82.8097 105.532 84.8981 107.596 87.4638 107.596C90.7672 107.596 93.7227 104.084 93.5797 100.783C93.0356 88.2179 93.7782 62.369 94.3432 48.2705Z" fill="#2E2729" stroke="#2E2729" stroke-width="2" stroke-linecap="round"/>
<path d="M129.784 116.63V103.534C134.165 104.677 140.657 104.01 143.356 103.534V116.63H129.784Z" fill="#F3E9E9" stroke="#F3E9E9" stroke-width="2" stroke-linecap="round"/>
<path d="M178.538 155.619C178.538 187.808 160.717 213.903 138.734 213.903C116.751 213.903 98.9307 187.808 98.9307 155.619C98.9307 123.43 115.697 116.894 137.68 116.894C159.663 116.894 178.538 123.43 178.538 155.619Z" fill="#030305"/>
<path d="M118.765 158.802C108.426 173.892 89.2848 178.753 76.0113 169.659C62.7378 160.565 53.0114 155.044 63.3502 139.954C72.0785 127.214 97.8075 119.073 114.222 121.205C127.496 130.299 129.104 143.711 118.765 158.802Z" fill="#030305"/>
<path d="M44.6552 138.711C30.8903 122.887 30.6581 109.716 44.0102 98.101C57.3623 86.4863 66.9157 86.1847 80.6806 102.009C92.3015 115.368 86.6353 137.612 80.0555 154.761C66.7034 166.376 58.4202 154.535 44.6552 138.711Z" fill="#030305"/>
<path d="M135.349 150.986C135.349 168.576 147.912 182.835 163.409 182.835C178.907 182.835 191.47 168.576 191.47 150.986C191.47 136.136 173.629 130.86 159.425 123.631C143.928 123.631 135.349 133.396 135.349 150.986Z" fill="#030305"/>
<path d="M161.143 135.228C161.143 132.466 158.904 130.228 156.143 130.228H118.151C109.867 130.228 103.151 136.943 103.151 145.228V192.192C103.151 200.476 109.867 207.192 118.151 207.192H156.143C158.904 207.192 161.143 204.953 161.143 202.192V135.228Z" fill="#4E514E"/>
<path d="M161.143 135.118C161.143 132.417 158.953 130.228 156.252 130.228V207.192C158.953 207.192 161.143 205.002 161.143 202.301V135.118Z" fill="#333733"/>
<path d="M69.312 101.525C57.9254 111.892 62.2771 107.819 57.9254 113.291C56.7237 114.802 47.5175 125.07 42.4605 114.801C40.8722 108.225 31.6637 98.099 39.0721 93.7154C56.2548 77.9643 74.5802 96.7283 69.312 101.525Z" fill="#F3E9E9"/>
<rect y="28.1807" width="3.33239" height="108.395" rx="1.66619" transform="rotate(-34.4793 0 28.1807)" fill="#EDEDED"/>
<path d="M69.3643 98.4835C62.3488 105.591 66.2783 101.591 62.3406 105.35C56.8114 109.287 56.0057 114.702 52.6115 107.356C51.4828 102.683 52.2027 97.5793 56.8114 94.6225C63.158 90.551 72.6101 95.1951 69.3643 98.4835Z" fill="#EBDDDD"/>
<path d="M156.081 157.664C138.268 166.479 151.155 165.792 154.925 173.408C158.694 181.025 152.826 188.82 163.625 186.271C169.493 183.367 170.461 176.5 168.997 168.041C165.029 160.023 161.949 154.76 156.081 157.664Z" fill="#F3E9E9"/>
<defs>
<linearGradient id="paint0_linear_1934_278" x1="156.934" y1="32.3564" x2="156.934" y2="65.0423" gradientUnits="userSpaceOnUse">
<stop offset="0.5" stop-color="#D8C7C7"/>
<stop offset="0.82" stop-color="#A49595"/>
</linearGradient>
<linearGradient id="paint1_linear_1934_278" x1="115.922" y1="32.3564" x2="115.922" y2="66.2757" gradientUnits="userSpaceOnUse">
<stop offset="0.425" stop-color="#D8C7C7"/>
<stop offset="1" stop-color="#A49595"/>
</linearGradient>
</defs>
</svg>
