<svg width="242" height="262" viewBox="0 0 242 262" fill="none" xmlns="http://www.w3.org/2000/svg">
<path d="M69.1617 73.1727C105.794 26.872 145.664 26.1546 161.095 31.6319C202.137 47.5273 200.922 97.258 195.115 120.534C195.048 120.803 195.004 121.066 194.981 121.343L186.258 224.211C185.991 227.367 182.919 229.465 179.899 228.555L43.4192 187.438C40.8209 186.655 39.3037 183.93 40.0025 181.301L68.2602 74.9737C68.4335 74.3214 68.7446 73.6998 69.1617 73.1727Z" fill="#A4A4A4" stroke="#A4A4A4" stroke-width="2" stroke-linecap="round"/>
<path d="M191.625 102.599C180.588 129.062 145.403 169.631 110.986 154.861C76.5698 140.091 80.7707 86.2237 91.8075 59.7609C102.844 33.2981 134.136 21.4353 161.7 33.2647C189.264 45.0941 202.662 76.1361 191.625 102.599Z" fill="#F3E9E9"/>
<path d="M198.698 131.579C193.21 139.937 182.883 142.74 175.633 137.841C168.383 132.941 174.514 129.924 180.002 121.567C185.491 113.209 188.258 102.676 195.509 107.575C202.759 112.475 204.187 123.222 198.698 131.579Z" fill="#F3E9E9"/>
<path d="M67.2513 78.1238C65.7899 88.056 71.1915 97.1049 79.3161 98.335C87.4407 99.5651 85.0869 93.1838 86.5483 83.2516C88.0097 73.3194 92.7329 63.5974 84.6083 62.3673C76.4837 61.1372 68.7127 68.1916 67.2513 78.1238Z" fill="#F3E9E9"/>
<path d="M183.318 106.508C175.791 126.612 168.765 115.166 157.555 110.355C146.345 105.544 141.184 102.648 145.773 91.6448C150.362 80.6412 152.182 66.4072 172.38 77.8243C183.59 82.6352 187.907 95.5047 183.318 106.508Z" fill="#D8C7C7"/>
<path d="M97.1641 70.453C92.4017 81.8718 96.4461 94.0026 106.983 98.5248C117.521 103.047 126.82 97.9395 131.582 86.5206C136.345 75.1018 145.139 63.2945 124.23 57.1736C113.692 52.6513 101.927 59.0341 97.1641 70.453Z" fill="url(#paint0_linear_1934_522)"/>
<path d="M156.696 115.5C149.096 124.7 155.529 138.5 152.196 147.5" stroke="#EDAEAE" stroke-width="2" stroke-linecap="round"/>
<path d="M142.303 102.804C151.188 108.838 171.451 121.657 181.429 124.66C170.056 114.542 146.309 96.0058 142.303 102.804Z" fill="#414141" stroke="#414141"/>
<path d="M92.528 73.0618C88.4637 82.8067 93.7015 94.3685 104.227 98.8856C114.752 103.403 126.361 99.0709 130.425 89.3259C134.489 79.581 124.849 77.9513 114.729 74.9876C103.232 72.1229 92.6667 68.6236 92.528 73.0618Z" fill="#FBF4F4"/>
<ellipse cx="13.1697" cy="12.0347" rx="13.1697" ry="12.0347" transform="matrix(-0.918948 -0.394379 -0.384929 0.922946 130.792 83.1846)" fill="#949C96"/>
<ellipse cx="13.1697" cy="12.0347" rx="13.1697" ry="12.0347" transform="matrix(-0.918948 -0.394379 -0.384929 0.922946 130.792 83.1846)" fill="#949C96"/>
<ellipse cx="13.1697" cy="12.0347" rx="13.1697" ry="12.0347" transform="matrix(-0.918948 -0.394379 -0.384929 0.922946 130.792 83.1846)" fill="#578626"/>
<path d="M130.683 82.1918C120.363 79.984 97.4889 74.2895 88.5507 69.1742C103.442 70.3282 132.717 74.5473 130.683 82.1918Z" fill="#414141" stroke="#414141"/>
<path d="M159.174 70.0564C157.844 68.2066 159.562 67.0255 160.588 66.6662C174.327 70.0042 181.035 78.1059 182.672 81.7396C179.861 78.4015 165.835 72.56 159.174 70.0564Z" fill="#2B2831" stroke="#2B2831"/>
<path d="M138.048 60.8751C140.283 60.5557 139.921 58.4828 139.461 57.4862C127.532 49.8095 117.129 50.5657 113.419 51.9034C117.738 51.6259 131.638 57.7689 138.048 60.8751Z" fill="#2B2831" stroke="#2B2831"/>
<path d="M107.959 123.75C109.079 125.474 113.276 129.016 121.105 129.392C123.799 132.591 130.466 138.312 135.587 135.607" stroke="#A99595" stroke-width="4" stroke-linecap="round"/>
<path d="M122.93 113.618C123.944 115.26 127.058 118.285 131.397 117.252" stroke="#A99595" stroke-width="4" stroke-linecap="round"/>
<path d="M182.792 126.671C176.859 140.897 164.169 143.224 149.796 137.055C135.423 130.887 129.602 120.616 135.536 106.39C141.469 92.1635 148.373 99.8348 162.747 106.003C177.12 112.172 188.725 112.444 182.792 126.671Z" fill="#F1F1F1" fill-opacity="0.5"/>
<path d="M145.776 99.5302C147.77 99.9559 150.061 100.992 152.832 102.362C155.569 103.714 158.736 105.37 162.362 106.926C165.986 108.482 169.45 109.671 172.44 110.777C175.463 111.895 177.973 112.917 179.842 114.153C181.684 115.372 182.811 116.737 183.213 118.523C183.625 120.351 183.321 122.806 181.873 126.276C179.005 133.153 174.563 137.048 169.188 138.544C163.769 140.052 157.244 139.164 150.181 136.133C143.117 133.101 138.308 129.124 135.943 124.304C133.594 119.515 133.568 113.705 136.455 106.784C137.91 103.294 139.362 101.313 140.839 100.288C142.261 99.3 143.831 99.1147 145.776 99.5302Z" stroke="#201F22" stroke-opacity="0.8" stroke-width="2"/>
<path d="M80.2128 82.6462C74.2795 96.8725 81.4697 107.731 95.843 113.899C110.216 120.068 121.536 117.153 127.469 102.927C133.403 88.7007 123.167 89.016 108.794 82.8475C94.4204 76.679 86.1461 68.4199 80.2128 82.6462Z" fill="#F1F1F1" fill-opacity="0.5"/>
<path d="M125.191 90.6947C123.502 89.5398 121.173 88.5938 118.274 87.5296C115.412 86.4789 112.035 85.3268 108.409 83.7707C104.784 82.2152 101.531 80.5216 98.6668 79.1148C95.7703 77.692 93.2996 76.5768 91.1234 76.0772C88.9787 75.5849 87.2275 75.7155 85.6839 76.6661C84.1037 77.6395 82.579 79.5699 81.1316 83.0403C78.2636 89.9169 78.6009 95.8636 81.286 100.819C83.9929 105.814 89.1644 109.945 96.228 112.977C103.292 116.009 109.455 116.74 114.511 115.105C119.535 113.48 123.664 109.453 126.55 102.532C128.006 99.042 128.396 96.6059 128.093 94.8168C127.802 93.0933 126.84 91.8219 125.191 90.6947Z" stroke="#201F22" stroke-opacity="0.8" stroke-width="2"/>
<path d="M124.671 108.003C126.983 107.617 131.409 108.138 133.891 111.961" stroke="#455265" stroke-opacity="0.8" stroke-width="2" stroke-linecap="round"/>
<path d="M88.7732 65.6601C102.134 43.6728 147.759 44.7963 172.381 46.7744C174.452 46.9408 176.431 47.807 177.661 49.5012C186.572 61.7731 189.902 90.9251 189.74 106.578L189.74 224.047C189.74 226.489 191.406 228.624 193.765 229.204C196.991 229.998 200.107 227.612 200.202 224.274L203.425 111.473C203.425 69.4304 190.478 47.1122 179.312 38.0667C134.261 6.44612 80.8124 34.7388 75.3097 55.8163C75.1942 56.2588 75.1396 56.702 75.1119 57.1593L68.4765 166.872L68.4765 187.125C68.4765 190.918 72.0824 193.681 75.7015 192.661C78.0798 191.991 79.7155 189.852 79.7179 187.36L79.7187 186.444C79.7377 164.842 79.8077 84.9634 88.7732 65.6601Z" fill="#CBCBCB" stroke="#CBCBCB" stroke-width="2" stroke-linecap="round"/>
<path d="M97.2553 167.229L103.96 151.152C108.677 154.831 116.875 157.384 120.385 158.201L113.68 174.278L97.2553 167.229Z" fill="#F3E9E9" stroke="#F3E9E9" stroke-width="2" stroke-linecap="round"/>
<path d="M138.075 220.86C127.558 246.077 98.6488 257.772 73.5046 246.981C48.3605 236.19 36.503 206.999 47.0203 181.782C57.5375 156.565 78.8504 159.675 103.995 170.466C129.139 181.257 148.593 195.642 138.075 220.86Z" fill="#3B3B3B"/>
<path d="M103.682 217.099C94.6757 238.693 72.3378 249.745 53.7887 241.784C35.2397 233.824 27.5036 209.865 36.5098 188.271C44.1131 170.04 68.1684 172.728 88.8703 171.149C107.419 179.109 112.688 195.505 103.682 217.099Z" fill="#3B3B3B"/>
<path d="M91.537 216.001C91.9346 239.445 106.541 254.409 126.903 254.054C147.264 253.698 165.67 238.158 165.273 214.715C164.937 194.923 141.377 188.3 122.552 178.991C102.191 179.346 91.1395 192.558 91.537 216.001Z" fill="#3B3B3B"/>
<path d="M80.0563 247.896C57.2952 262.603 67.2714 248.097 61.2717 238.542C55.272 228.988 42.1939 230.51 52.8044 219.695C60.3026 214.85 68.8265 218.391 77.4322 225.838C83.7481 235.896 87.5545 243.051 80.0563 247.896Z" fill="#F3E9E9"/>
<path d="M140.361 250.998C141.22 270.072 144.793 258.505 151.601 258.19C158.409 257.875 162.298 266.078 163.838 255.611C163.555 249.328 163.906 218.935 152.1 243.748C140.918 223.709 140.078 244.715 140.361 250.998Z" fill="#F3E9E9"/>
<defs>
<linearGradient id="paint0_linear_1934_522" x1="123.631" y1="56.5753" x2="105.838" y2="98.0334" gradientUnits="userSpaceOnUse">
<stop offset="0.425" stop-color="#D8C7C7"/>
<stop offset="1" stop-color="#A49595"/>
</linearGradient>
</defs>
</svg>
