<svg width="266" height="301" viewBox="0 0 266 301" fill="none" xmlns="http://www.w3.org/2000/svg">
<path d="M69.1616 73.1727C105.794 26.872 145.664 26.1546 161.095 31.6319C202.137 47.5273 200.922 97.258 195.115 120.534C195.048 120.803 195.004 121.066 194.981 121.343L186.258 224.211C185.991 227.367 182.919 229.465 179.899 228.555L43.4191 187.438C40.8208 186.655 39.3036 183.93 40.0024 181.301L68.2601 74.9737C68.4334 74.3214 68.7446 73.6998 69.1616 73.1727Z" fill="#251E20" stroke="#251E20" stroke-width="2" stroke-linecap="round"/>
<path d="M191.626 102.599C180.589 129.062 145.404 169.631 110.987 154.861C76.5707 140.091 80.7716 86.2237 91.8084 59.7609C102.845 33.2981 134.137 21.4353 161.701 33.2647C189.265 45.0941 202.662 76.1361 191.626 102.599Z" fill="#F3E9E9"/>
<path d="M198.699 131.58C193.211 139.938 182.884 142.741 175.634 137.842C168.384 132.942 174.515 129.925 180.003 121.568C185.492 113.21 188.259 102.677 195.51 107.576C202.76 112.476 204.188 123.223 198.699 131.58Z" fill="#F3E9E9"/>
<path d="M67.2522 78.1238C65.7908 88.056 71.1924 97.1049 79.317 98.335C87.4416 99.5651 85.0878 93.1838 86.5492 83.2516C88.0106 73.3194 92.7338 63.5974 84.6092 62.3673C76.4846 61.1372 68.7136 68.1916 67.2522 78.1238Z" fill="#F3E9E9"/>
<path d="M183.318 106.508C175.791 126.612 168.765 115.166 157.555 110.355C146.345 105.544 141.184 102.648 145.773 91.6448C150.362 80.6412 152.182 66.4072 172.38 77.8243C183.59 82.6352 187.907 95.5047 183.318 106.508Z" fill="#D8C7C7"/>
<path d="M97.164 70.453C92.4016 81.8718 96.446 94.0026 106.983 98.5248C117.521 103.047 126.82 97.9395 131.582 86.5206C136.345 75.1018 145.139 63.2945 124.23 57.1736C113.692 52.6513 101.926 59.0341 97.164 70.453Z" fill="url(#paint0_linear_1934_357)"/>
<path d="M142.303 102.804C151.188 108.838 171.451 121.657 181.429 124.66C170.056 114.542 146.309 96.0058 142.303 102.804Z" fill="#414141" stroke="#414141"/>
<path d="M92.5279 73.0618C88.4636 82.8067 93.7014 94.3685 104.227 98.8856C114.752 103.403 126.361 99.0709 130.425 89.3259C134.489 79.581 124.849 77.9513 114.729 74.9876C103.232 72.1229 92.6666 68.6236 92.5279 73.0618Z" fill="#FBF4F4"/>
<ellipse cx="13.1697" cy="12.0347" rx="13.1697" ry="12.0347" transform="matrix(-0.918948 -0.394379 -0.384929 0.922946 130.792 83.1846)" fill="#949C96"/>
<ellipse cx="13.1697" cy="12.0347" rx="13.1697" ry="12.0347" transform="matrix(-0.918948 -0.394379 -0.384929 0.922946 130.792 83.1846)" fill="#949C96"/>
<ellipse cx="13.1697" cy="12.0347" rx="13.1697" ry="12.0347" transform="matrix(-0.918948 -0.394379 -0.384929 0.922946 130.792 83.1846)" fill="#949C96"/>
<path d="M130.683 82.1908C120.363 79.983 97.4888 74.2885 88.5506 69.1732C103.442 70.3272 132.717 74.5463 130.683 82.1908Z" fill="#414141" stroke="#414141"/>
<path d="M159.174 70.0564C157.844 68.2066 159.562 67.0255 160.588 66.6662C174.326 70.0042 181.035 78.1059 182.671 81.7396C179.861 78.4015 165.835 72.56 159.174 70.0564Z" fill="#2B2831" stroke="#2B2831"/>
<path d="M138.048 60.8741C140.283 60.5547 139.921 58.4818 139.461 57.4853C127.532 49.8085 117.129 50.5647 113.419 51.9024C117.738 51.625 131.638 57.768 138.048 60.8741Z" fill="#2B2831" stroke="#2B2831"/>
<path d="M107.959 123.749C109.079 125.473 113.276 129.015 121.105 129.391C123.798 132.59 130.466 138.311 135.587 135.606" stroke="#A99595" stroke-width="4" stroke-linecap="round"/>
<path d="M122.93 113.618C123.944 115.26 127.058 118.285 131.397 117.252" stroke="#A99595" stroke-width="4" stroke-linecap="round"/>
<path d="M182.793 126.672C176.86 140.898 164.17 143.225 149.797 137.056C135.424 130.888 129.603 120.617 135.537 106.391C141.47 92.1645 148.374 99.8358 162.748 106.004C177.121 112.173 188.726 112.445 182.793 126.672Z" fill="#F1F1F1" fill-opacity="0.5"/>
<path d="M145.777 99.5312C147.771 99.9569 150.061 100.993 152.833 102.363C155.57 103.715 158.737 105.371 162.363 106.927C165.987 108.483 169.451 109.672 172.441 110.778C175.464 111.895 177.974 112.918 179.843 114.154C181.685 115.373 182.812 116.738 183.214 118.524C183.626 120.352 183.322 122.807 181.874 126.277C179.006 133.154 174.564 137.049 169.189 138.545C163.77 140.053 157.245 139.165 150.182 136.134C143.118 133.102 138.309 129.125 135.944 124.305C133.595 119.516 133.569 113.706 136.456 106.785C137.911 103.295 139.363 101.314 140.84 100.289C142.262 99.3009 143.832 99.1157 145.777 99.5312Z" stroke="#201F22" stroke-opacity="0.8" stroke-width="2"/>
<path d="M80.2137 82.6462C74.2804 96.8725 81.4705 107.731 95.8439 113.899C110.217 120.068 121.537 117.153 127.47 102.927C133.403 88.7007 123.168 89.016 108.795 82.8475C94.4213 76.679 86.147 68.4199 80.2137 82.6462Z" fill="#F1F1F1" fill-opacity="0.5"/>
<path d="M125.192 90.6947C123.503 89.5398 121.174 88.5938 118.275 87.5296C115.413 86.4789 112.036 85.3268 108.41 83.7707C104.785 82.2152 101.532 80.5216 98.6677 79.1148C95.7712 77.692 93.3005 76.5768 91.1243 76.0772C88.9796 75.5849 87.2284 75.7155 85.6848 76.6661C84.1046 77.6395 82.5799 79.5699 81.1325 83.0403C78.2645 89.9169 78.6018 95.8636 81.2869 100.819C83.9938 105.814 89.1653 109.945 96.2289 112.977C103.293 116.009 109.455 116.74 114.512 115.105C119.536 113.48 123.665 109.453 126.551 102.532C128.007 99.042 128.397 96.6059 128.094 94.8168C127.803 93.0933 126.841 91.8219 125.192 90.6947Z" stroke="#201F22" stroke-opacity="0.8" stroke-width="2"/>
<path d="M124.671 108.004C126.984 107.618 131.41 108.139 133.892 111.962" stroke="#455265" stroke-opacity="0.8" stroke-width="2" stroke-linecap="round"/>
<path d="M88.7731 65.6601C102.134 43.6728 147.759 44.7963 172.38 46.7744C174.452 46.9408 176.431 47.807 177.661 49.5012C186.571 61.7731 189.902 90.9251 189.74 106.578L189.74 224.047C189.74 226.489 191.406 228.624 193.765 229.204C196.991 229.998 200.107 227.612 200.202 224.274L203.424 111.473C203.424 69.4304 190.478 47.1122 179.311 38.0667C134.261 6.44612 80.8123 34.7388 75.3096 55.8163C75.1941 56.2588 75.1395 56.702 75.1118 57.1593L68.4764 166.872L68.4764 187.125C68.4764 190.918 72.0823 193.681 75.7014 192.661C78.0797 191.991 79.7154 189.852 79.7178 187.36L79.7187 186.444C79.7376 164.842 79.8077 84.9634 88.7731 65.6601Z" fill="#2E2729" stroke="#2E2729" stroke-width="2" stroke-linecap="round"/>
<path d="M97.2552 167.229L103.96 151.152C108.677 154.831 116.875 157.384 120.385 158.201L113.68 174.278L97.2552 167.229Z" fill="#F3E9E9" stroke="#F3E9E9" stroke-width="2" stroke-linecap="round"/>
<path d="M138.075 220.86C127.558 246.077 98.6487 257.772 73.5045 246.981C48.3604 236.19 36.5029 206.999 47.0202 181.782C57.5374 156.565 78.8504 159.675 103.995 170.466C129.139 181.257 148.592 195.642 138.075 220.86Z" fill="#030305"/>
<path d="M103.682 217.099C94.6756 238.693 72.3377 249.745 53.7886 241.784C35.2396 233.824 27.5035 209.865 36.5097 188.271C44.113 170.04 68.1683 172.728 88.8702 171.149C107.419 179.109 112.688 195.505 103.682 217.099Z" fill="#030305"/>
<path d="M91.5369 216.001C91.9345 239.445 106.541 254.409 126.903 254.054C147.264 253.698 165.67 238.158 165.273 214.715C164.937 194.923 141.377 188.3 122.552 178.991C102.191 179.346 91.1394 192.558 91.5369 216.001Z" fill="#030305"/>
<path d="M80.0562 247.896C57.2951 262.603 67.2713 248.097 61.2716 238.542C55.2719 228.988 42.1938 230.51 52.8043 219.695C60.3025 214.85 68.8264 218.391 77.4321 225.838C83.748 235.896 87.5544 243.051 80.0562 247.896Z" fill="#F3E9E9"/>
<path d="M140.361 250.998C141.22 270.072 144.793 258.505 151.601 258.19C158.409 257.875 162.298 266.078 163.838 255.611C163.555 249.328 163.906 218.935 152.1 243.748C140.918 223.709 140.078 244.715 140.361 250.998Z" fill="#F3E9E9"/>
<defs>
<linearGradient id="paint0_linear_1934_357" x1="123.631" y1="56.5753" x2="105.838" y2="98.0334" gradientUnits="userSpaceOnUse">
<stop offset="0.425" stop-color="#D8C7C7"/>
<stop offset="1" stop-color="#A49595"/>
</linearGradient>
</defs>
</svg>
